<svg xmlns="http://www.w3.org/2000/svg" id="Layer_2" data-name="Layer 2" viewBox="0 0 226 44">
  <defs>
    <style>
      .cls-1 {
        fill: #fff;
      }

      .cls-2 {
        fill: #d42b49;
      }
    </style>
  </defs>
  <g id="Layer_1-2" data-name="Layer 1">
    <g>
      <rect class="cls-2" width="226" height="44"/>
      <path class="cls-1" d="m37.7,27.54c-1.51-4.79-2.64-8.3-3.4-10.53-1.23-3.64-2.01-5.67-2.32-6.1-.52-.73-1.26-1.29-2.25-1.68-.98-.39-2.05-.58-3.21-.58s-2.24.19-3.22.58c-.99.39-1.74.95-2.26,1.68-.27.42-1.03,2.46-2.28,6.15-1.12,3.31-2.27,6.82-3.45,10.53-1.18,3.71-1.95,6.19-2.31,7.44h6.3l6.71-20.21c.11-.22.29-.32.54-.32.26,0,.41.11.45.32l6.86,20.21h6.21c-.66-2.08-1.45-4.57-2.36-7.48"/>
      <path class="cls-1" d="m140.77,27.54c-1.51-4.79-2.64-8.3-3.4-10.53-1.23-3.64-2.01-5.67-2.32-6.1-.52-.73-1.26-1.29-2.25-1.68-.98-.39-2.05-.58-3.21-.58s-2.24.19-3.22.58c-.99.39-1.74.95-2.26,1.68-.27.42-1.03,2.46-2.28,6.15-1.12,3.31-2.27,6.82-3.45,10.53-1.18,3.71-1.95,6.19-2.31,7.44h6.3l6.71-20.21c.12-.22.29-.32.54-.32.26,0,.41.11.45.32l6.86,20.21h6.21c-.66-2.08-1.45-4.57-2.36-7.48"/>
      <path class="cls-1" d="m73.58,8.57h-4.88s.03,11.42.03,13.49-.17,3.86-.93,5.32c-.83,1.61-1.94,2.42-3.32,2.42h-5.49c-1.4,0-2.51-.8-3.35-2.41-.75-1.45-1.12-3.29-1.12-5.31s0-13.47,0-13.47l-4.62-.08c-.68,0-1.24.54-1.26,1.22-.08,2.86,0,9.95,0,12.75,0,3.54.81,6.52,2.42,8.94,1.78,2.69,4.23,4.03,7.32,4.03h6.84c3.11,0,5.56-1.34,7.34-4.03,1.6-2.4,2.05-5.19,2.05-8.8,0-2.88.28-10.05.06-12.82-.05-.65-.41-1.23-1.06-1.25"/>
      <path class="cls-1" d="m94.67,24.1c-.66-.6-.66-1.64,0-2.24l14.53-13.21h-6.99c-.82,0-1.6.31-2.2.88l-8.23,7.81v-8.69h-4.85c-.54,0-.98.44-.98.98v24.42h0c0,.54.44.98.98.98h4.85v-6.29l5.7,5.41c.59.56,1.38.88,2.2.87h7s-12-10.92-12-10.92Z"/>
      <path class="cls-1" d="m162.66,25.37c-.71-.5-.88-.43-.78-.87,1.96.06,5.81.08,5.81.08,2.24,0,4.02-.83,5.33-2.5,1.18-1.49,1.77-3.3,1.77-5.47s-.59-4-1.77-5.49c-1.31-1.65-3.08-2.48-5.33-2.48h-13.87c-.62,0-1.12.5-1.12,1.12v4.45h14.02c.65,0,1.17.25,1.55.75.35.44.52.99.52,1.65,0,.62-.18,1.15-.54,1.6-.36.45-.87.68-1.53.68h-7.14c-2.34,0-4.12.76-5.33,2.26-1.04,1.29-1.55,2.99-1.55,5.09v8.74h5.92s.02-1.29.02-6.2c.09.07,6.79,5.38,6.79,5.38.59.56,1.38.88,2.2.87l7.24-.05s-7.9-6.82-12.21-9.61"/>
      <path class="cls-1" d="m213,22.07c0-3.61-.82-6.68-2.46-9.22-1.81-2.8-4.24-4.21-7.28-4.21h-8.62c-3.04,0-5.46,1.4-7.28,4.21-1.64,2.53-2.46,5.65-2.46,9.19s.81,6.52,2.42,8.94c1.79,2.69,4.23,4.03,7.32,4.03h8.62c3.11,0,5.56-1.34,7.34-4.03,1.6-2.4,2.4-5.3,2.4-8.91m-10.71,7.22h-6.67c-1.4,0-2.51-.8-3.35-2.41-.75-1.45-1.12-3.29-1.12-5.31s.37-3.7,1.1-5.07c.82-1.52,1.94-2.29,3.37-2.29h6.67c1.42,0,2.55.76,3.37,2.29.73,1.37,1.1,3,1.1,5.07s-.38,3.84-1.14,5.31c-.83,1.61-1.94,2.41-3.33,2.41"/>
    </g>
  </g>
</svg>